<svg width="371" height="364" viewBox="0 0 371 364" fill="none" xmlns="http://www.w3.org/2000/svg">
<path d="M325.747 362.057L19.844 298.15C2.36833 294.499 -4.6018 273.299 7.29777 259.99L231.574 9.15096C243.474 -4.15797 265.318 0.405584 270.894 17.3654L368.502 314.239C371.09 322.11 369.282 330.764 363.759 336.94L347.779 354.813C342.256 360.99 333.858 363.751 325.747 362.057ZM74.8029 293.393L314.19 343.404C320.849 344.795 327.744 342.528 332.278 337.457L344.783 323.47C349.317 318.399 350.802 311.295 348.677 304.833L272.294 72.5116C267.716 58.5878 249.782 54.8411 240.012 65.7676L64.5026 262.064C54.7332 272.991 60.4556 290.396 74.8029 293.393ZM314.395 342.425L75.0074 292.414C61.4136 289.574 55.9917 273.083 65.2481 262.731L240.758 66.4342C250.014 56.0815 267.006 59.6314 271.344 72.8239L347.727 305.145C349.74 311.268 348.334 317.999 344.038 322.804L331.532 336.79C327.237 341.595 320.704 343.743 314.395 342.425ZM131.48 286.607L301.447 322.116C306.226 323.114 311.174 321.487 314.427 317.848L323.306 307.917C326.56 304.278 327.625 299.18 326.101 294.542L271.868 129.592C268.582 119.6 255.712 116.912 248.702 124.753L124.088 264.125C117.077 271.966 121.184 284.456 131.48 286.607ZM301.652 321.137L131.685 285.629C122.142 283.635 118.336 272.059 124.834 264.792L249.447 125.419C255.945 118.152 267.873 120.644 270.918 129.905L325.151 294.855C326.564 299.153 325.577 303.878 322.561 307.251L313.682 317.181C310.666 320.554 306.081 322.062 301.652 321.137Z" stroke="url(#paint0_radial_150_411)"/>
<defs>
<radialGradient id="paint0_radial_150_411" cx="0" cy="0" r="1" gradientUnits="userSpaceOnUse" gradientTransform="translate(359.5 354.5) rotate(-160.685) scale(318.953 154.819)">
<stop stop-color="#F0F6FB" stop-opacity="0.5"/>
<stop offset="1" stop-color="#F0F6FB" stop-opacity="0"/>
</radialGradient>
</defs>
</svg>
