<svg width="64" height="64" fill="none" xmlns="http://www.w3.org/2000/svg">
  <g opacity=".5" fill="#F0F6FB">
    <path d="m27.2 35.01.37.29a7.21 7.21 0 0 0 8.86 0l.36-.29 10.6 8.32A5.71 5.71 0 0 1 43.33 45H20.67c-1.6 0-3.03-.64-4.06-1.67L27.2 35ZM24.94 33.24l-9.84-7.72c-.07.33-.1.67-.1 1.02v12.92c0 .5.07.97.19 1.43l9.75-7.65ZM16.35 22.95A5.7 5.7 0 0 1 20.67 21h22.66a5.7 5.7 0 0 1 4.32 1.95L34.66 33.14a4.33 4.33 0 0 1-5.32 0L16.35 22.95ZM48.9 25.52l-9.84 7.72 9.75 7.65c.12-.46.19-.94.19-1.43V26.54c0-.35-.03-.7-.1-1.02Z"/>
  </g>
</svg>
