<svg width="64" height="64" fill="none" xmlns="http://www.w3.org/2000/svg">
  <path fill-rule="evenodd" clip-rule="evenodd" d="M14.98 31.66c9.33-4.06 15.55-6.74 18.67-8.04 8.88-3.7 10.73-4.33 11.93-4.36.27 0 .86.07 1.24.38.33.26.42.61.46.86.04.25.1.82.05 1.26-.48 5.06-2.56 17.34-3.62 23-.45 2.4-1.33 3.21-2.19 3.29-1.86.17-3.27-1.23-5.07-2.4-2.82-1.85-4.4-3-7.14-4.8-3.16-2.09-1.11-3.23.69-5.1.47-.5 8.66-7.94 8.82-8.61.02-.09.03-.4-.15-.57-.19-.17-.47-.1-.67-.06-.28.06-4.78 3.03-13.5 8.92a6.08 6.08 0 0 1-3.46 1.28c-1.15-.03-3.34-.65-4.98-1.18-2-.65-3.6-1-3.46-2.1.08-.58.87-1.17 2.38-1.77Z" fill="#F0F6FB" opacity=".5"/>
</svg>
