<svg width="150" height="148" fill="none" xmlns="http://www.w3.org/2000/svg">
  <path fill-rule="evenodd" clip-rule="evenodd" d="M112.5 113.9c0 5.8-3.8 11.4-10.6 15.6-6.8 4.2-16.3 7-26.9 7a51.6 51.6 0 0 1-27-7c-6.7-4.2-10.5-9.8-10.5-15.6 0-1 .1-2 .3-2.9l-1.3-3.5c-.9 2-1.3 4.2-1.3 6.4 0 13.7 17.8 24.8 39.8 24.8 22 0 39.8-11 39.8-24.8 0-2.2-.4-4.3-1.3-6.4l-1.3 3.5.3 2.9Z" fill="url(#a)"/>
  <path d="M113.8 104.6c0 6.4-4.1 12.4-11.2 16.8a53 53 0 0 1-27.6 7.1 53 53 0 0 1-27.6-7.1c-7-4.4-11.2-10.4-11.2-16.8S40.3 92.3 47.4 88A53 53 0 0 1 75 80.8a53 53 0 0 1 27.6 7.1c7 4.4 11.2 10.3 11.2 16.7Z" stroke="url(#b)" stroke-width="2"/>
  <ellipse cx="75" cy="94.8" rx="39.8" ry="25.4" fill="url(#c)"/>
  <path d="M59.6 29.3C54.2 33 51.8 40 52.4 48.5c.6 8.3 4.2 18 10.7 27 6.5 8.9 14.7 15.3 22.6 18.5 8 3.1 15.4 3 20.7-.8 5.4-3.8 7.8-10.8 7.2-19.2-.6-8.4-4.2-18-10.7-27a54.4 54.4 0 0 0-22.6-18.5c-8-3.1-15.4-3-20.7.8Z" stroke="#F0F6FB" stroke-width="2"/>
  <path fill-rule="evenodd" clip-rule="evenodd" d="M70.8 70c-13.2-18.2-14.7-39.5-3.3-47.6 11.5-8.2 31.5-.1 44.8 18 13.2 18 14.7 39.4 3.2 47.5-11.4 8.2-31.4.1-44.7-18Zm6-34.2 2.4 3.4a8.3 8.3 0 0 0-1.8 4.2c-.4 2.3 0 5 1 8.2 1.1 3 3 6.4 5.5 10 2.6 3.5 5.3 6.3 8 8.3 2.6 2 5.1 3.1 7.5 3.5 1.7.3 3.2.2 4.6-.4l2.3 3.3 3.3-2.4-2.4-3.2 1-1.6c.5-1.2.8-2.6.8-4.1 0-1.5-.3-3.2-.8-4.9-.5-1.7-1.3-3.4-2.3-5.2l-3.2 2.2c.7 1.2 1.2 2.3 1.4 3.4.3 1 .4 2 .3 2.9a6 6 0 0 1-.6 2.4 5 5 0 0 1-1.5 1.7 5.3 5.3 0 0 1-4.2.8c-1.6-.3-3.4-1.2-5.3-2.6a31.8 31.8 0 0 1-5.8-6.3c-2-2.7-3.4-5.2-4.2-7.4-.8-2.2-1.1-4.2-1-5.8.3-1.6 1-2.9 2.2-3.7a5 5 0 0 1 2.1-.9c.8-.1 1.7 0 2.6.2.9.2 1.8.7 2.7 1.2a14 14 0 0 1 2.8 2.4l3-2.2c-1.4-1.7-3-3-4.4-4-1.5-1-3-1.8-4.5-2.3a9.8 9.8 0 0 0-5.8 0l-2.6-3.4-3.2 2.3Z" fill="#F0F6FB"/>
  <defs>
    <linearGradient id="a" x1="75" y1="89" x2="75" y2="138.8" gradientUnits="userSpaceOnUse">
      <stop stop-color="#E64CFF"/>
      <stop offset="1" stop-color="#970FAD"/>
    </linearGradient>
    <linearGradient id="b" x1="75" y1="79.8" x2="75" y2="129.5" gradientUnits="userSpaceOnUse">
      <stop stop-color="#E64CFF"/>
      <stop offset="1" stop-color="#970FAD"/>
    </linearGradient>
    <linearGradient id="c" x1="35.2" y1="120.3" x2="114.2" y2="68.4" gradientUnits="userSpaceOnUse">
      <stop stop-color="#E64CFF"/>
      <stop offset=".1" stop-color="#FF30D9"/>
      <stop offset=".3" stop-color="#FF1EB2"/>
      <stop offset=".4" stop-color="#FF2E8C"/>
      <stop offset=".6" stop-color="#FF4A6A"/>
      <stop offset=".7" stop-color="#FF654C"/>
      <stop offset=".9" stop-color="#FF7E32"/>
      <stop offset="1" stop-color="#F7931A"/>
    </linearGradient>
  </defs>
</svg>