<svg width="150" height="148" fill="none" xmlns="http://www.w3.org/2000/svg">
  <path fill-rule="evenodd" clip-rule="evenodd" d="m27.64 83.49 37.35 22.11a2 2 0 0 0 3.02-1.72v-91.3a2 2 0 0 0-3.02-1.73L27.64 32.96a2.33 2.33 0 0 0-1.15 2.01v46.51c0 .82.43 1.59 1.15 2Z" fill="url(#a)"/>
  <path d="m27.64 83.49 37.35 22.11a2 2 0 0 0 3.02-1.72v-91.3a2 2 0 0 0-3.02-1.73L27.64 32.96m0 50.53a2.33 2.33 0 0 1-1.15-2m1.15 2-.17-.1a2 2 0 0 1-.98-1.72v-.19m0 0V34.97m0 0c0-.82.43-1.58 1.15-2m-1.15 2v-.18a2 2 0 0 1 .98-1.73l.17-.1" stroke="url(#b)" stroke-width="2" stroke-linecap="round"/>
  <path fill-rule="evenodd" clip-rule="evenodd" d="M82 142.76a2 2 0 0 0 3.01 1.72l37.35-22.1a2.34 2.34 0 0 0 1.16-2.02v-46.5c0-.83-.44-1.6-1.16-2.01L85.01 49.73A2 2 0 0 0 82 51.46v91.3Z" fill="#F0F6FB"/>
  <path d="m122.36 122.37-37.35 22.11a2 2 0 0 1-3.02-1.72v-91.3a2 2 0 0 1 3.02-1.73l37.35 22.12m0 50.52a2.34 2.34 0 0 0 1.16-2m-1.16 2 .17-.1a2 2 0 0 0 .98-1.72v-.19m-1.15-48.51a2.34 2.34 0 0 1 1.16 2m-1.16-2 .17.1a2 2 0 0 1 .98 1.72v.18m0 0v46.52" stroke="#F0F6FB" stroke-width="2" stroke-linecap="round"/>
  <path d="m78.73 123.44 33.73-19.5a8 8 0 0 0 4-6.93v-39a8 8 0 0 0-4-6.93l-33.73-19.5a8 8 0 0 0-8 0l-33.75 19.5a8 8 0 0 0-4 6.93v39a8 8 0 0 0 4 6.93l33.74 19.5a8 8 0 0 0 8 0Z" stroke="url(#c)" stroke-width="2" stroke-linecap="round" stroke-dasharray="5 5"/>
  <defs>
    <linearGradient id="a" x1="26.49" y1="107.39" x2="113.63" y2="12.85" gradientUnits="userSpaceOnUse">
      <stop stop-color="#E64CFF"/>
      <stop offset=".14" stop-color="#FF30D9"/>
      <stop offset=".29" stop-color="#FF1EB2"/>
      <stop offset=".43" stop-color="#FF2E8C"/>
      <stop offset=".57" stop-color="#FF4A6A"/>
      <stop offset=".71" stop-color="#FF654C"/>
      <stop offset=".86" stop-color="#FF7E32"/>
      <stop offset="1" stop-color="#F7931A"/>
    </linearGradient>
    <linearGradient id="b" x1="26.49" y1="107.39" x2="113.63" y2="12.85" gradientUnits="userSpaceOnUse">
      <stop stop-color="#E64CFF"/>
      <stop offset=".14" stop-color="#FF30D9"/>
      <stop offset=".29" stop-color="#FF1EB2"/>
      <stop offset=".43" stop-color="#FF2E8C"/>
      <stop offset=".57" stop-color="#FF4A6A"/>
      <stop offset=".71" stop-color="#FF654C"/>
      <stop offset=".86" stop-color="#FF7E32"/>
      <stop offset="1" stop-color="#F7931A"/>
    </linearGradient>
    <linearGradient id="c" x1="74.72" y1="29.27" x2="74.72" y2="125.75" gradientUnits="userSpaceOnUse">
      <stop stop-color="#E64CFF"/>
      <stop offset="1" stop-color="#970FAD"/>
    </linearGradient>
  </defs>
</svg>