<svg width="127" height="32" viewBox="0 0 127 32" fill="none" xmlns="http://www.w3.org/2000/svg">
<path fill-rule="evenodd" clip-rule="evenodd" d="M0 29.56C0 30.6646 0.895431 31.56 2 31.56H4.1116C5.21617 31.56 6.1116 30.6646 6.1116 29.56V18.6235V13.6953V7.64295C6.1116 6.53838 7.00703 5.64295 8.1116 5.64295H19.1249C20.2295 5.64295 21.1249 4.74752 21.1249 3.64295V2.31873C21.1249 1.21416 20.2295 0.318726 19.1249 0.318726H2C0.895431 0.318726 0 1.21416 0 2.31872V29.56ZM23.9689 29.56C23.9689 30.6646 24.8644 31.56 25.9689 31.56H27.9034C29.008 31.56 29.9034 30.6646 29.9034 29.56V10.5031C29.9034 9.3985 29.008 8.50307 27.9034 8.50307H25.9689C24.8644 8.50307 23.9689 9.3985 23.9689 10.5031V29.56ZM62.2133 31.56C61.1088 31.56 60.2133 30.6646 60.2133 29.56V10.5031C60.2133 9.3985 61.1088 8.50307 62.2133 8.50307H64.1478C65.2524 8.50307 66.1478 9.3985 66.1478 10.5031V29.56C66.1478 30.6646 65.2524 31.56 64.1478 31.56H62.2133ZM75.019 9.38404C74.6471 8.8332 74.0259 8.50307 73.3613 8.50307H72.0461C70.4318 8.50307 69.4827 10.3169 70.4029 11.6432L75.4806 18.9612C75.9625 19.6558 75.9557 20.5785 75.4634 21.2658L70.3575 28.3956C69.4097 29.719 70.3556 31.56 71.9835 31.56H73.2871C73.9438 31.56 74.5586 31.2377 74.9321 30.6976L79.2773 24.4145C79.2896 24.3967 79.3005 24.3779 79.3098 24.3583C79.4505 24.0613 79.8695 24.0514 80.024 24.3414L80.0487 24.3877L84.4562 30.7045C84.8302 31.2406 85.4427 31.56 86.0964 31.56H87.4311C89.0541 31.56 90.0012 29.729 89.0635 28.4044L83.9191 21.1382C83.4306 20.4482 83.4287 19.5256 83.9144 18.8336L88.9547 11.652C89.8849 10.3267 88.9368 8.50307 87.3176 8.50307H85.9886C85.321 8.50307 84.6975 8.83616 84.3263 9.39105L80.093 15.7194L80.0559 15.7857C79.8884 16.0854 79.4508 16.0658 79.3106 15.7524C79.3008 15.7304 79.289 15.7093 79.2756 15.6893L75.019 9.38404ZM95.2573 31.56C94.1527 31.56 93.2573 30.6646 93.2573 29.56V10.5031C93.2573 9.3985 94.1527 8.50307 95.2573 8.50307H97.1918C98.2963 8.50307 99.1918 9.3985 99.1918 10.5031V29.56C99.1918 30.6646 98.2963 31.56 97.1918 31.56H95.2573ZM107.823 30.372C109.653 31.4574 111.838 32.0001 114.377 32.0001C116.887 32.0001 119.042 31.4574 120.843 30.372C122.673 29.2573 124.076 27.7905 125.05 25.9718C126.024 24.1531 126.512 22.1876 126.512 20.0756C126.512 17.9341 126.024 15.9541 125.05 14.1353C124.076 12.3166 122.673 10.8645 120.843 9.77912C119.042 8.66441 116.887 8.10705 114.377 8.10705C111.867 8.10705 109.697 8.66441 107.867 9.77912C106.066 10.8645 104.663 12.3166 103.66 14.1353C102.685 15.9541 102.198 17.9341 102.198 20.0756C102.198 22.1876 102.685 24.1531 103.66 25.9718C104.634 27.7905 106.022 29.2573 107.823 30.372ZM109.107 23.6837C108.575 22.6277 108.31 21.4249 108.31 20.0756C108.31 18.7262 108.575 17.5381 109.107 16.5114C109.638 15.4554 110.362 14.634 111.277 14.0473C112.192 13.4313 113.226 13.1233 114.377 13.1233C115.499 13.1233 116.518 13.4313 117.433 14.0473C118.348 14.634 119.071 15.4554 119.603 16.5114C120.164 17.5381 120.444 18.7115 120.444 20.0316C120.444 21.3809 120.164 22.5837 119.603 23.6397C119.071 24.6664 118.348 25.4878 117.433 26.1038C116.518 26.6905 115.499 26.9838 114.377 26.9838C113.226 26.9838 112.192 26.6905 111.277 26.1038C110.362 25.5171 109.638 24.7104 109.107 23.6837ZM39.7668 19.656C39.7668 17.6813 40.1113 16.4808 40.6685 15.7846C41.1134 15.2286 42.1393 14.4496 44.9749 14.4496C47.8161 14.4496 48.6039 15.2248 48.902 15.6451C49.3759 16.3132 49.6347 17.5012 49.6347 19.656V29.4388C49.6347 30.5433 50.5301 31.4388 51.6347 31.4388H53.6651C54.7697 31.4388 55.6651 30.5433 55.6651 29.4388V19.656C55.6651 17.4264 55.4854 14.5042 53.8212 12.1581C51.9813 9.5642 48.9317 8.42125 44.9749 8.42125C41.0126 8.42125 37.9268 9.56041 35.9596 12.0187C34.1046 14.3366 33.7364 17.2464 33.7364 19.656V29.4388C33.7364 30.5433 34.6319 31.4388 35.7364 31.4388H37.7668C38.8714 31.4388 39.7668 30.5433 39.7668 29.4388V19.656Z" fill="white"/>
<path d="M23.9707 2V3.85225C23.9707 4.95682 24.8661 5.85225 25.9707 5.85225H27.8296C28.9342 5.85225 29.8296 4.95682 29.8296 3.85225V2C29.8296 0.895431 28.9342 0 27.8296 0H25.9707C24.8661 0 23.9707 0.89543 23.9707 2Z" fill="#2346C1"/>
<path d="M60.1633 2V3.85225C60.1633 4.95682 61.0588 5.85225 62.1633 5.85225H64.0222C65.1268 5.85225 66.0222 4.95682 66.0222 3.85225V2C66.0222 0.895431 65.1268 0 64.0222 0H62.1633C61.0588 0 60.1633 0.89543 60.1633 2Z" fill="#FF0D64"/>
<path d="M93.3359 2V3.85225C93.3359 4.95682 94.2314 5.85225 95.3359 5.85225H97.1948C98.2994 5.85225 99.1948 4.95682 99.1948 3.85225V2C99.1948 0.895431 98.2994 0 97.1948 0H95.3359C94.2314 0 93.3359 0.89543 93.3359 2Z" fill="#39C677"/>
<path d="M8.43408 15.4736V17.3259C8.43408 18.4304 9.32951 19.3259 10.4341 19.3259H12.293C13.3975 19.3259 14.293 18.4304 14.293 17.3259V15.4736C14.293 14.3691 13.3975 13.4736 12.293 13.4736H10.4341C9.32951 13.4736 8.43408 14.3691 8.43408 15.4736Z" fill="#FFBB0B"/>
</svg>
