<svg width="333" height="364" fill="none" xmlns="http://www.w3.org/2000/svg">
  <path d="M287.747 362.057-18.1561 298.15c-17.4757-3.651-24.4458-24.851-12.5462-38.16L193.574 9.151c11.9-13.309 33.744-8.7454 39.32 8.2144l97.608 296.8736c2.587 7.871.78 16.525-4.743 22.701l-15.98 17.873c-5.523 6.177-13.921 8.938-22.032 7.244ZM36.8028 293.393 276.19 343.404c6.659 1.391 13.554-.876 18.088-5.947l12.505-13.987c4.534-5.071 6.019-12.175 3.894-18.637L234.294 72.5116c-4.578-13.9238-22.513-17.6705-32.282-6.744L26.5025 262.064c-9.7695 10.927-4.0471 28.332 10.3003 31.329Zm239.5922 49.032L37.0073 292.414c-13.5938-2.84-19.0157-19.331-9.7594-29.683L202.757 66.4342c9.257-10.3527 26.249-6.8028 30.587 6.3897l76.383 232.3211c2.013 6.123.607 12.854-3.689 17.659l-12.506 13.986c-4.296 4.805-10.828 6.953-17.137 5.635ZM93.4799 286.607l169.9671 35.509c4.779.998 9.727-.629 12.98-4.268l8.879-9.931c3.254-3.639 4.319-8.737 2.794-13.375l-54.232-164.95c-3.286-9.992-16.156-12.68-23.166-4.839L86.0882 264.125c-7.0108 7.841-2.9043 20.331 7.3917 22.482Zm170.1721 34.53L93.6844 285.629c-9.5425-1.994-13.3485-13.57-6.8508-20.837L211.447 125.419c6.498-7.267 18.426-4.775 21.471 4.486l54.232 164.95c1.414 4.298.426 9.023-2.589 12.396l-8.879 9.93c-3.016 3.373-7.602 4.881-12.03 3.956Z" stroke="url(#a)"/>
  <defs>
    <radialGradient id="a" cx="0" cy="0" r="1" gradientUnits="userSpaceOnUse" gradientTransform="matrix(-301.00054 -105.49736 51.20816 -146.10492 321.5 354.5)">
      <stop stop-color="#F0F6FB" stop-opacity=".5"/>
      <stop offset="1" stop-color="#F0F6FB" stop-opacity="0"/>
    </radialGradient>
  </defs>
</svg>