<svg width="631" height="618" fill="none" stroke="#fff" xmlns="http://www.w3.org/2000/svg">
  <path d="m620.323 573.683-27.305 30.5c-9.521 10.635-24 15.39-37.982 12.472L32.3397 507.597c-30.12818-6.286-42.14325-42.787-21.6295-65.701L393.931 13.832c20.514-22.91543 58.174-15.05722 67.787 14.1432L628.499 534.597c4.461 13.551 1.345 28.451-8.176 39.086Zm-54.32.411 21.368-23.869c7.663-8.559 10.171-20.552 6.581-31.46L463.435 122.304c-7.737-23.5034-38.047-29.8268-54.558-11.384L108.985 445.905c-16.5124 18.444-6.84 47.823 17.408 52.882l409.041 85.345c11.253 2.348 22.906-1.478 30.569-10.038Zm20.623-24.536-21.368 23.869c-7.425 8.293-18.716 12.001-29.62 9.726l-409.041-85.345c-23.495-4.902-32.8646-33.367-16.867-51.236l299.892-334.985c15.999-17.8703 45.367-11.742 52.864 11.03l130.516 396.461c3.479 10.568 1.048 22.187-6.376 30.48Zm-51.124-8.927 15.171-16.947c5.475-6.116 7.268-14.685 4.702-22.479l-92.667-281.491c-5.529-16.794-27.186-21.312-38.983-8.134L210.798 449.422c-11.798 13.179-4.886 34.171 12.439 37.785l290.422 60.596c8.041 1.678 16.367-1.056 21.843-7.172Zm14.426-17.614-15.171 16.947c-5.237 5.85-13.202 8.465-20.893 6.86l-290.423-60.595c-16.573-3.458-23.181-23.536-11.897-36.14L424.47 212.247c11.285-12.605 32-8.283 37.288 7.779l92.667 281.491c2.454 7.455.74 15.65-4.497 21.5Z" />
</svg>