<svg width="280" height="50" xmlns="http://www.w3.org/2000/svg">
  <path fill="#ff2b24" fill-rule="evenodd" d="M5.74 10.06c2.6 0 4.77-2.17 4.77-4.77 0-2.6-2.17-4.77-4.77-4.77A4.82 4.82 0 0 0 .97 5.3c0 2.6 2.18 4.77 4.77 4.77ZM1.77 38.9h7.95V12.4H1.77v26.5Z"/>
  <path fill="#00c2ff" fill-rule="evenodd" d="M31.4 11.65c-3.56 0-6.15 1.22-7.9 3.24v-2.5h-7.95v37.1h7.95V36.42c1.75 2 4.34 3.23 7.9 3.23 6.94 0 12.66-6.1 12.66-14 0-7.89-5.72-13.99-12.66-13.99Zm-1.6 20.46c-3.65 0-6.3-2.49-6.3-6.46 0-3.98 2.65-6.47 6.3-6.47 3.66 0 6.31 2.5 6.31 6.47 0 3.97-2.65 6.46-6.3 6.46ZM48.57 38.9h7.95V.2h-7.95v38.7ZM81.59 12.4v2.49c-1.75-2.02-4.35-3.24-7.9-3.24-6.94 0-12.67 6.1-12.67 14s5.73 13.99 12.67 13.99c3.55 0 6.15-1.22 7.9-3.23v2.49h7.95V12.4h-7.95ZM75.28 32.1c-3.66 0-6.3-2.49-6.3-6.46 0-3.98 2.64-6.47 6.3-6.47 3.66 0 6.3 2.5 6.3 6.47 0 3.97-2.64 6.46-6.3 6.46ZM112.06 12.4l-4.98 16.21-5.88-16.21h-8.75L103 37.68c-1.17 3.23-2.92 4.4-6.63 4.4v7.42c7.42.37 12.14-2.97 15.1-11.4l9.07-25.7h-8.48Z"/>
  <path fill="#fff" fill-rule="evenodd" d="M136.18 39.64c5.19 0 9.7-2.7 11.97-6.84l-6.94-3.97c-.85 1.85-2.8 2.96-5.14 2.96-3.44 0-5.99-2.49-5.99-6.14 0-3.66 2.54-6.15 5.99-6.15 2.33 0 4.24 1.11 5.14 2.97l6.94-4.03a13.65 13.65 0 0 0-11.97-6.79c-8.06 0-14.05 6.1-14.05 14s5.99 13.99 14.05 13.99ZM159.55 17.11V12.4h-7.95v26.5h7.95V26.92c0-5.25 4.66-6.57 7.95-6.04v-9.01c-3.34 0-6.9 1.7-7.95 5.24ZM187.9 12.4l-4.98 16.21-5.88-16.21h-8.75l10.55 25.28c-1.16 3.23-2.91 4.4-6.62 4.4v7.42c7.42.37 12.13-2.97 15.1-11.4l9.06-25.7h-8.48ZM215.15 11.65c-3.55 0-6.15 1.22-7.9 3.24v-2.5h-7.95v37.1h7.95V36.42c1.75 2 4.35 3.23 7.9 3.23 6.94 0 12.66-6.1 12.66-14 0-7.89-5.72-13.99-12.66-13.99Zm-1.6 20.46c-3.65 0-6.3-2.49-6.3-6.46 0-3.98 2.65-6.47 6.3-6.47 3.66 0 6.31 2.5 6.31 6.47 0 3.97-2.65 6.46-6.3 6.46ZM247.85 20.03V12.4h-5.46V4.98l-7.95 2.38v5.04h-4.24v7.63h4.24v9.38c0 7.42 3.02 10.55 13.4 9.49v-7.21c-3.5.21-5.45 0-5.45-2.28v-9.38h5.46Z"/>
  <path fill="#ff2b24" fill-rule="evenodd" d="M265.6 39.64c7.8 0 14.05-6.1 14.05-14 0-7.89-6.26-13.99-14.05-13.99-7.79 0-14.04 6.1-14.04 14s6.25 13.99 14.04 13.99Z"/>
</svg>