<svg xmlns="http://www.w3.org/2000/svg" data-name="Group 12616" width="362.26" height="94.63">
  <g data-name="Group 12610">
    <g data-name="Group 12608">
      <circle data-name="Ellipse 9" cx="47.31" cy="47.31" r="47.31" fill="#ffc961"/>
      <path data-name="Path 61" d="M66.52 54.74c0 7.76-6.27 13.12-14.1 13.12H33.25V22.63h17.83c7.62 0 13.76 5.17 13.76 12.73a11.2 11.2 0 0 1-4.26 9.05 11.46 11.46 0 0 1 5.95 10.33ZM42.15 30.96v9.96h8.92a4.98 4.98 0 0 0 0-9.96Zm15.52 23.2a5.11 5.11 0 0 0-5.24-5.3H42.15v10.67h10.28a5.13 5.13 0 0 0 5.24-5.37Z" fill="#00264e"/>
      <path data-name="Path 62" d="M70.98 26.57a5.14 5.14 0 1 1 5.1 5.1 5.16 5.16 0 0 1-5.1-5.1Zm.97 8.98h8.34v32.31h-8.34Z" fill="#00264e"/>
      <path data-name="Path 63" d="M99.1 43.56V57c0 3.5 2.51 3.56 7.3 3.3v7.56c-11.7 1.3-15.65-2.13-15.65-10.85V43.56h-5.62v-8h5.62v-6.54l8.34-2.52v9.05h7.3v8.01Z" fill="#00264e"/>
      <path data-name="Path 64" d="M109.63 51.7a16.68 16.68 0 0 1 17.06-17.05 16.26 16.26 0 0 1 14.48 8.34l-7.17 4.2a8 8 0 0 0-7.37-4.33 8.47 8.47 0 0 0-8.66 8.85 8.46 8.46 0 0 0 8.66 8.79 7.97 7.97 0 0 0 7.43-4.27l7.24 4.14a17 17 0 0 1-31.67-8.66Z" fill="#00264e"/>
      <path data-name="Path 65" d="M143.5 51.7a17.1 17.1 0 1 1 17.06 17.07A16.88 16.88 0 0 1 143.5 51.7Zm25.85 0a8.76 8.76 0 1 0-17.51 0 8.76 8.76 0 1 0 17.5 0Z" fill="#00264e"/>
      <path data-name="Path 66" d="M182.6 26.57a5.14 5.14 0 1 1 5.1 5.1 5.16 5.16 0 0 1-5.1-5.1Zm.97 8.98h8.34v32.31h-8.34Z" fill="#00264e"/>
      <path data-name="Path 67" d="M229.71 48.02v19.84h-8.33v-18.8c0-4.4-2.65-6.66-6.4-6.66-4.07 0-7.11 2.4-7.11 8.01v17.45h-8.34v-32.3h8.34v3.61c1.94-2.9 5.3-4.52 9.63-4.52 6.85 0 12.21 4.78 12.21 13.37Z" fill="#00264e"/>
      <g data-name="Group 52" fill="#ff5f5f">
        <path data-name="Path 68" d="M270.41 37.81A15.15 15.15 0 0 1 254.97 53h-7.95v14.86h-8.92V22.63h16.87A15.14 15.14 0 0 1 270.4 37.8Zm-8.85 0a6.52 6.52 0 0 0-6.6-6.85h-7.94v13.7h7.95a6.56 6.56 0 0 0 6.59-6.85Z"/>
        <path data-name="Path 69" d="M275.85 20.69h8.33v47.18h-8.33Z"/>
        <path data-name="Path 70" d="M324.7 35.55v32.31h-8.33v-3.81a12.87 12.87 0 0 1-10.54 4.72c-8.6 0-15.7-7.43-15.7-17.06s7.11-17.06 15.7-17.06a12.87 12.87 0 0 1 10.54 4.71v-3.8Zm-8.33 16.16a8.69 8.69 0 0 0-8.98-9.12c-5.11 0-8.92 3.69-8.92 9.12s3.81 9.1 8.92 9.1a8.69 8.69 0 0 0 8.98-9.1Z"/>
        <path data-name="Path 71" d="m362.26 35.55-11.77 32.31c-3.35 9.3-8.85 13.38-17.06 12.93v-7.76c4.6.06 6.92-1.87 8.47-6.2l-13.24-31.28h9.1l8.4 21.71 7.18-21.7Z"/>
      </g>
      <path data-name="Rectangle 64" fill="#00264e" d="M43.77 65.6h8.34v6.8h-8.34z"/>
      <path data-name="Rectangle 65" fill="#00264e" d="M43.77 18.08h8.34v8.34h-8.34z"/>
    </g>
  </g>
</svg>