<svg width="150" height="148" fill="none" xmlns="http://www.w3.org/2000/svg">
  <path d="m41.8 98.6 25.7-6.8L93.2 85 60.7 66.8 41.8 98.6ZM17.4 105c-.5.2-.5.8-.1 1l62.5 35.2c.2.2.5-.2.3-.4L41.8 98.6l-24.4 6.5Z" fill="#fff"/>
  <path d="m67.5 91.8-25.7 6.8 38.7 42.6c.2.3.7.2.8-.2l11.9-56-25.7 6.8Z" fill="url(#a)"/>
  <path d="M16.8 104.3c-.2.4.1.9.6.8l24.4-6.5 18.9-31.8-24.9 6.5a2 2 0 0 0-1.2 1l-17.8 30Z" fill="url(#b)"/>
  <path d="m94 85.9 22.7-6-33.3 56.3L94 86Z" stroke="#970FAD" stroke-width="2" stroke-linejoin="round"/>
  <path d="m87.8 25.3 19 32.1m-19-32 13 3.3m-13-3.4 15.6-8.8a2 2 0 0 1 1.5-.2l12.2 3.2M139.5 39l-32.7 18.4M139.5 39l-13-3.4m13 3.4-9-15.4a2 2 0 0 0-1.3-.9l-12.1-3.2m-10.3 38-6-28.8m6 28.7 19.8-21.8m-25.9-6.9 13 3.5 12.9 3.4m-25.9-6.9 16.4-9.2m9.5 16-9.5-16" stroke="url(#c)" stroke-width="2" stroke-linejoin="round"/>
  <path d="M93 85h.3l24.3-6.4c.5-.1.5-.7.1-1L87.1 60.5a2 2 0 0 0-1.5-.2l-25 6.6L93 84.9Z" fill="#C72DE0"/>
  <defs>
    <linearGradient id="a" x1="29.4" y1="154" x2="86.2" y2="59.9" gradientUnits="userSpaceOnUse">
      <stop stop-color="#E64CFF"/>
      <stop offset=".1" stop-color="#FF30D9"/>
      <stop offset=".3" stop-color="#FF1EB2"/>
      <stop offset=".4" stop-color="#FF2E8C"/>
      <stop offset=".6" stop-color="#FF4A6A"/>
      <stop offset=".7" stop-color="#FF654C"/>
      <stop offset=".9" stop-color="#FF7E32"/>
      <stop offset="1" stop-color="#F7931A"/>
    </linearGradient>
    <linearGradient id="b" x1="29.4" y1="154" x2="86.2" y2="59.9" gradientUnits="userSpaceOnUse">
      <stop stop-color="#E64CFF"/>
      <stop offset=".1" stop-color="#FF30D9"/>
      <stop offset=".3" stop-color="#FF1EB2"/>
      <stop offset=".4" stop-color="#FF2E8C"/>
      <stop offset=".6" stop-color="#FF4A6A"/>
      <stop offset=".7" stop-color="#FF654C"/>
      <stop offset=".9" stop-color="#FF7E32"/>
      <stop offset="1" stop-color="#F7931A"/>
    </linearGradient>
    <linearGradient id="c" x1="117.1" y1="19.5" x2="107" y2="57.5" gradientUnits="userSpaceOnUse">
      <stop stop-color="#E64CFF"/>
      <stop offset="1" stop-color="#970FAD"/>
    </linearGradient>
  </defs>
</svg>