<svg width="71" height="28" fill="none" xmlns="http://www.w3.org/2000/svg">
  <path d="M52.65 27.72a1 1 0 0 1-.95-.69L43.35 1.95A1 1 0 0 1 44.3.63h6.07a1 1 0 0 1 .96.71l4.82 16.18c.28.95 1.63.95 1.92 0l4.77-16.17a1 1 0 0 1 .96-.72h5.8a1 1 0 0 1 .95 1.32L62.2 27.03a1 1 0 0 1-.95.69h-8.6Z" fill="#F0F6FB"/>
  <path d="M43.17 27.72a1 1 0 0 1-.95-.68l-8.45-25.1a1 1 0 0 1 .95-1.31h6.2a1 1 0 0 1 .94.68l6.55 19.35 1.93 5.74a1 1 0 0 1-.95 1.32h-6.22Z" fill="#970FAD"/>
  <path d="M28.61 27.72a1 1 0 0 1-.95-.69L19.38 1.94a1 1 0 0 1 .94-1.31h6.05a1 1 0 0 1 .95.68l6.42 19.35 1.89 5.75a1 1 0 0 1-.95 1.3h-6.07Z" fill="#C72DE0"/>
  <path d="M33.58 27.72a1 1 0 0 1-.94-.68l-8.46-25.1a1 1 0 0 1 .95-1.31h6.2a1 1 0 0 1 .94.68l6.56 19.35 1.93 5.74a1 1 0 0 1-.95 1.32h-6.23Z" fill="#C72DE0"/>
  <path d="M16.97 27.72a1 1 0 0 1-.95-.69L7.73 1.94A1 1 0 0 1 8.68.63h6.04a1 1 0 0 1 .95.68l6.42 19.35 1.9 5.75a1 1 0 0 1-.95 1.3h-6.07Z" fill="#E64CFF"/>
  <path d="M9.96 27.72a1 1 0 0 1-.95-.68L.55 1.94A1 1 0 0 1 1.5.64h6.2a1 1 0 0 1 .95.68l6.55 19.35 1.93 5.74a1 1 0 0 1-.95 1.32H9.96Z" fill="#E64CFF"/>
</svg>