<svg width="165" height="16" fill="none" xmlns="http://www.w3.org/2000/svg">
  <path d="M26.89 15.65 22 .65h4.45l3.25 11.14L32.92.65h4.3l-4.89 15H26.9ZM52.2 12.43a8.07 8.07 0 0 1-2.87 2.63 8.81 8.81 0 0 1-4.24.94c-1.21 0-2.3-.2-3.28-.58a8.12 8.12 0 0 1-2.49-1.64 7.32 7.32 0 0 1-1.58-2.49 8.5 8.5 0 0 1-.56-3.1c0-1.07.19-2.08.56-3.04A7.54 7.54 0 0 1 41.9.97c.97-.41 2.04-.61 3.21-.61 1.2 0 2.26.19 3.2.58a6.92 6.92 0 0 1 3.9 4.04c.34.91.51 1.92.51 3a14.54 14.54 0 0 1-.05 1.44H41.19a4 4 0 0 0 1.35 2.28c.7.57 1.58.85 2.63.85.92 0 1.7-.18 2.34-.53a4.93 4.93 0 0 0 1.64-1.46l3.05 1.87ZM45.09 3.7c-.96 0-1.76.24-2.4.73a3.86 3.86 0 0 0-1.35 1.99h7.29a3.24 3.24 0 0 0-1.32-2.05 3.88 3.88 0 0 0-2.22-.67ZM54.14 15.65v-15h4.07v2.04a5.92 5.92 0 0 1 1.84-1.63c.74-.41 1.58-.62 2.52-.62v4.1c-1.5 0-2.6.39-3.31 1.17a4.47 4.47 0 0 0-1.02 3.1v6.84h-4.1ZM70.67 4.19c-.57 0-1.1.1-1.58.32-.47.21-.88.5-1.23.88a4 4 0 0 0-1.14 2.83c0 .57.1 1.1.29 1.58.21.49.5.92.85 1.29s.76.66 1.23.87a4.3 4.3 0 0 0 3.19 0 3.8 3.8 0 0 0 2.17-2.16 3.88 3.88 0 0 0 0-3.13 4.1 4.1 0 0 0-3.78-2.49Zm4.04 10.35c-.53.4-1.18.73-1.96.96a8.22 8.22 0 0 1-5.36-.23 7.52 7.52 0 0 1-4.04-4 7.5 7.5 0 0 1-.61-3.05 7.74 7.74 0 0 1 4.65-7.1 7.64 7.64 0 0 1 5.36-.23c.78.23 1.43.55 1.96.96V.65h4.06v15h-4.06v-1.11ZM95.47 11.81a8.4 8.4 0 0 1-2.8 2.81 7.97 7.97 0 0 1-4.19 1.02 7.85 7.85 0 0 1-5.7-2.28 7.53 7.53 0 0 1-2.23-5.52c0-1.1.2-2.12.58-3.07A7.45 7.45 0 0 1 85.26.6c.98-.4 2.05-.61 3.22-.61a7.79 7.79 0 0 1 7.02 3.92L92.31 5.9a5.46 5.46 0 0 0-1.43-1.55 3.64 3.64 0 0 0-2.25-.65c-1.2 0-2.16.38-2.9 1.14a4.15 4.15 0 0 0-1.08 2.99c0 1.22.36 2.23 1.08 3 .74.77 1.7 1.15 2.9 1.15.93 0 1.68-.2 2.25-.61a5.86 5.86 0 0 0 1.43-1.58l3.16 2.01ZM103.8 3.83c-.57 0-1.1.1-1.58.32-.47.22-.88.5-1.23.88a4 4 0 0 0-1.14 2.84c0 .56.1 1.09.3 1.58.2.48.49.91.84 1.28s.76.66 1.23.88a4.3 4.3 0 0 0 3.19 0c.5-.22.95-.5 1.32-.88.37-.37.65-.8.84-1.28a3.87 3.87 0 0 0 0-3.13 4.1 4.1 0 0 0-3.78-2.49Zm4.04 10.35c-.53.41-1.18.73-1.96.97-.76.23-1.57.35-2.43.35a7.4 7.4 0 0 1-5.33-2.2 7.5 7.5 0 0 1-2.25-5.44 7.74 7.74 0 0 1 4.65-7.1 7.64 7.64 0 0 1 5.36-.23c.78.23 1.43.55 1.96.96V.3h4.07v15h-4.07v-1.1ZM117.43 10.59c0 .23.04.46.12.7.1.23.25.45.47.64.21.2.5.36.84.5.36.13.8.2 1.35.2.76 0 1.32-.14 1.67-.44.37-.29.56-.61.56-.96a.85.85 0 0 0-.21-.59 1.34 1.34 0 0 0-.56-.4 11.85 11.85 0 0 0-1.87-.44l-2.1-.38a7.7 7.7 0 0 1-2.03-.68 4.47 4.47 0 0 1-1.52-1.37 4.28 4.28 0 0 1-.58-2.4c0-.68.14-1.31.44-1.9.29-.58.7-1.1 1.22-1.52A6.1 6.1 0 0 1 117.2.5a8.13 8.13 0 0 1 2.57-.38c1.91 0 3.44.45 4.57 1.34a4.9 4.9 0 0 1 1.87 3.63h-4.07a3.12 3.12 0 0 0-.14-.76 1.14 1.14 0 0 0-.36-.59 1.77 1.77 0 0 0-.7-.4c-.29-.1-.66-.15-1.11-.15-.58 0-1.1.1-1.52.32-.41.2-.62.53-.62 1 0 .27.1.5.27.7.17.17.42.32.73.43.31.12.67.22 1.08.3l1.29.23c.64.12 1.3.25 1.96.4.68.15 1.3.37 1.84.68a3.48 3.48 0 0 1 1.9 3.28c0 .9-.17 1.66-.52 2.3a4.54 4.54 0 0 1-1.43 1.56c-.6.4-1.33.7-2.17.9a11.36 11.36 0 0 1-5.41-.08 6.7 6.7 0 0 1-2.08-1.06 4.54 4.54 0 0 1-1.84-3.57h4.12ZM128.09 15.3V.3h4.06v15h-4.06ZM137.81 1.81c.37-.43.93-.83 1.67-1.2a5.72 5.72 0 0 1 2.7-.58c.87 0 1.66.15 2.36.44a5.28 5.28 0 0 1 3.02 3.16c.27.74.4 1.56.4 2.45v9.21h-4.03V6.8c0-.9-.25-1.62-.73-2.17-.47-.57-1.14-.85-2.02-.85-1 0-1.8.3-2.4.88-.6.58-.91 1.4-.91 2.46v8.18h-4.07V.3h4.01v1.52Z" fill="#F0F6FB"/>
  <path d="m22.04 15.64-5-14.93h4.55l3.72 11.04 1.3 3.9h-4.57Z" fill="#970FAD"/>
  <path d="M14.4 15.64 9.58.71h4.39l3.58 11.04 1.26 3.9h-4.4Z" fill="#C72DE0"/>
  <path d="m17.07 15.64-5-14.93h4.55l3.72 11.04 1.3 3.9h-4.57Z" fill="#C72DE0"/>
  <path d="M8.91 15.64 3.91.71h4.55l3.72 11.04 1.3 3.9H8.91Z" fill="#E64CFF"/>
  <path d="M5 15.64 0 .71h4.56l3.72 11.04 1.3 3.9H5.01Z" fill="#E64CFF"/>
  <path fill-rule="evenodd" clip-rule="evenodd" d="M157.2 15.64c4.3 0 7.8-3.42 7.8-7.64S161.5.36 157.2.36A7.73 7.73 0 0 0 149.38 8c0 4.22 3.5 7.64 7.8 7.64Zm0-3.82c2.15 0 3.9-1.7 3.9-3.82a3.86 3.86 0 0 0-3.9-3.82A3.86 3.86 0 0 0 153.28 8a3.86 3.86 0 0 0 3.9 3.82Z" fill="#F0F6FB"/>
</svg>