<svg width="65" height="64" fill="none" xmlns="http://www.w3.org/2000/svg">
  <path d="M33.55 41.68c-5.35 0-7.79-2.68-7.79-4.68 0-1 .8-1.74 1.86-1.74 2.28 0 1.7 3.42 5.99 3.42 2.17 0 3.44-1.31 3.44-2.52 0-.74-.42-1.58-1.85-1.9l-4.77-1.2c-3.82-.95-4.5-3.11-4.5-5.06 0-4.05 3.76-5.53 7.3-5.53 3.29 0 7.21 1.8 7.21 4.27 0 1.05-.9 1.63-1.9 1.63-1.97 0-1.65-2.74-5.57-2.74-1.96 0-2.97.9-2.97 2.16 0 1.26 1.54 1.68 2.86 2l3.5.79c3.87.84 4.88 3.1 4.88 5.26 0 3.27-2.6 5.84-7.69 5.84Zm14.78-7.05A15.04 15.04 0 0 0 30.9 17.16a8.96 8.96 0 0 0-12.24 12.21A15.04 15.04 0 0 0 36.1 46.84a8.96 8.96 0 0 0 12.24-12.21Z" fill="#F0F6FB" opacity=".5"/>
</svg>
