<svg width="127" height="32" fill="none" xmlns="http://www.w3.org/2000/svg">
  <path fill-rule="evenodd" clip-rule="evenodd" d="M0 29.56c0 1.1.9 2 2 2h2.11a2 2 0 0 0 2-2V7.64c0-1.1.9-2 2-2h11.01a2 2 0 0 0 2-2V2.32a2 2 0 0 0-2-2H2a2 2 0 0 0-2 2v27.24Zm23.97 0c0 1.1.9 2 2 2h1.93a2 2 0 0 0 2-2V10.5a2 2 0 0 0-2-2h-1.93a2 2 0 0 0-2 2v19.06Zm38.24 2a2 2 0 0 1-2-2V10.5c0-1.1.9-2 2-2h1.94a2 2 0 0 1 2 2v19.06a2 2 0 0 1-2 2H62.2Zm12.8-22.18a2 2 0 0 0-1.65-.88h-1.31a2 2 0 0 0-1.65 3.14l5.08 7.32a2 2 0 0 1-.02 2.3l-5.1 7.14a2 2 0 0 0 1.62 3.16h1.3a2 2 0 0 0 1.65-.86l4.35-6.29a.4.4 0 0 0 .03-.05.4.4 0 0 1 .71-.02l.03.05 4.4 6.31a2 2 0 0 0 1.65.86h1.33a2 2 0 0 0 1.63-3.16l-5.14-7.26a2 2 0 0 1 0-2.3l5.03-7.19a2 2 0 0 0-1.63-3.15h-1.33a2 2 0 0 0-1.66.9l-4.24 6.32-.03.07c-.17.3-.6.28-.75-.04a.42.42 0 0 0-.03-.06l-4.26-6.3Zm20.25 22.18a2 2 0 0 1-2-2V10.5c0-1.1.9-2 2-2h1.93a2 2 0 0 1 2 2v19.06a2 2 0 0 1-2 2h-1.93Zm12.56-1.19a12.62 12.62 0 0 0 6.56 1.63c2.5 0 4.66-.54 6.46-1.63a11.38 11.38 0 0 0 4.21-4.4 12.3 12.3 0 0 0 1.46-5.9c0-2.14-.49-4.12-1.46-5.93a11.08 11.08 0 0 0-4.2-4.36 12.04 12.04 0 0 0-6.47-1.67c-2.51 0-4.68.55-6.51 1.67a11.49 11.49 0 0 0-4.21 4.36 12.37 12.37 0 0 0-1.46 5.94c0 2.1.48 4.07 1.46 5.9a11.48 11.48 0 0 0 4.16 4.4Zm1.29-6.69a7.91 7.91 0 0 1-.8-3.6c0-1.35.27-2.54.8-3.57a6.12 6.12 0 0 1 2.17-2.46 5.43 5.43 0 0 1 3.1-.93c1.12 0 2.14.31 3.05.93.92.58 1.64 1.4 2.17 2.46.56 1.03.84 2.2.84 3.52 0 1.35-.28 2.55-.84 3.61a6.53 6.53 0 0 1-2.17 2.46c-.91.59-1.93.88-3.05.88-1.15 0-2.19-.29-3.1-.88a6.18 6.18 0 0 1-2.17-2.42Zm-69.34-4.02c0-1.98.34-3.18.9-3.88.44-.55 1.47-1.33 4.3-1.33 2.85 0 3.63.77 3.93 1.2.48.66.73 1.85.73 4v9.79c0 1.1.9 2 2 2h2.04a2 2 0 0 0 2-2v-9.78c0-2.23-.18-5.16-1.85-7.5-1.84-2.6-4.89-3.74-8.85-3.74s-7.04 1.14-9.01 3.6c-1.86 2.32-2.22 5.23-2.22 7.64v9.78c0 1.1.9 2 2 2h2.03a2 2 0 0 0 2-2v-9.78Z" fill="#fff"/>
  <path d="M23.97 2v1.85c0 1.1.9 2 2 2h1.86a2 2 0 0 0 2-2V2a2 2 0 0 0-2-2h-1.86a2 2 0 0 0-2 2Z" fill="#2346C1"/>
  <path d="M60.16 2v1.85c0 1.1.9 2 2 2h1.86a2 2 0 0 0 2-2V2a2 2 0 0 0-2-2h-1.86a2 2 0 0 0-2 2Z" fill="#FF0D64"/>
  <path d="M93.34 2v1.85c0 1.1.9 2 2 2h1.85a2 2 0 0 0 2-2V2a2 2 0 0 0-2-2h-1.85a2 2 0 0 0-2 2Z" fill="#39C677"/>
  <path d="M8.43 15.47v1.86c0 1.1.9 2 2 2h1.86a2 2 0 0 0 2-2v-1.86a2 2 0 0 0-2-2h-1.86a2 2 0 0 0-2 2Z" fill="#FFBB0B"/>
</svg>